<?xml version="1.0" encoding="utf-8"?>
<!-- Generator: Adobe Illustrator 25.2.0, SVG Export Plug-In . SVG Version: 6.00 Build 0)  -->
<svg version="1.1" id="Layer_1" xmlns="http://www.w3.org/2000/svg" xmlns:xlink="http://www.w3.org/1999/xlink" x="0px" y="0px"
	 viewBox="0 0 945 132.8" style="enable-background:new 0 0 945 132.8;" xml:space="preserve">
<style type="text/css">
	.st0{fill:#FFFFFF;}
	.st1{opacity:0.7;}
	.st2{opacity:0.7;fill:#FFFFFF;}
</style>
<g>
	<path class="st0" d="M0,50.5C0,20.1,19.4,0,48.6,0c24.4,0,42,14,45,35.9H71c-2.9-9.8-11.2-15.3-23-15.3
		c-15.8,0-25.5,11.2-25.5,29.8c0,18.3,9.8,29.8,25.5,29.8c12,0,20.9-5.9,23.5-15.6h22.2c-3.4,21.8-21.6,36.2-46.1,36.2
		C18.3,100.8,0,81.4,0,50.5z"/>
	<path class="st0" d="M105.5,47.3v52h20.3v-66h-1.1C120.5,40.1,113.1,45.1,105.5,47.3z"/>
	<path class="st0" d="M147.4,99.3V50.2h-12.5V33.3h12.5V12.8h20.3v20.5h12.5v16.9h-12.5v49.1C167.7,99.3,147.4,99.3,147.4,99.3z"/>
	<path class="st0" d="M184.1,113.9h11.2c6.9,0,9.8-2.1,12.4-9.2l1.2-3.2l-26.5-68.2h21.8l14.4,42.4l16-42.4h21.1l-33.5,80.4
		c-5.5,13.5-12.9,19.1-24.6,19.1c-4.9,0-9.5-0.7-13.5-1.8L184.1,113.9L184.1,113.9z"/>
</g>
<g>
	<path class="st0" d="M258.2,1.3H335v19.8h-27.7V99h-21.4V21.1h-27.7L258.2,1.3L258.2,1.3z"/>
	<path class="st0" d="M330.7,79.5c0-12.1,8.6-19.7,24.4-20.9l18.5-1.5V56c0-6.5-4-9.9-11.2-9.9c-8.6,0-13.2,3.3-13.2,9.2h-16.9
		c0-14.9,12.3-24.7,31.2-24.7c19.1,0,30,10.7,30,29.6v38.5h-18l-1.3-8.7c-2.1,6.1-10.8,10.4-20.7,10.4
		C339.4,100.7,330.7,92.5,330.7,79.5z M373.7,74.3v-3.6l-10.3,0.9c-8.8,0.8-12,2.8-12,7c0,4.8,2.9,7,9.1,7
		C368.3,85.6,373.7,81.8,373.7,74.3z"/>
	<path class="st0" d="M407.9,98.9V-0.6h20.3v99.5H407.9z"/>
	<path class="st0" d="M440,65.8c0-20.6,13.9-35,33.8-35c20.7,0,33.7,13.6,33.7,35.1V71l-47.9,0.3c1.2,8.7,6.1,12.8,15,12.8
		c7.7,0,13.1-2.8,14.5-7.5h18.6c-2.4,14.7-15.4,24-33.5,24C454.2,100.7,440,86.1,440,65.8z M459.8,58.8h27.5c0-7-5.1-11.5-13.3-11.5
		C465.9,47.3,461.4,50.9,459.8,58.8z"/>
	<path class="st0" d="M534,78.1c0.3,4.6,3.7,7.4,9.9,7.4c6.3,0,9.2-2.2,9.2-5.7c0-2-1.1-4.1-5.9-5.1L535,72
		c-12.1-2.6-18.1-7.9-18.1-19.5c0-13.7,11.7-21.6,27.6-21.6c15.3,0,26,9,26,22.3h-19.3c0-4.5-2.8-7.5-7.7-7.5
		c-4.6,0-7.5,2.4-7.5,5.9c0,3,2.5,4.8,7.1,5.8l12.3,2.6c10.8,2.4,16.8,7.4,16.8,18c0,14.1-12,22.7-29.2,22.7
		c-17.4,0-28.4-9.2-28.4-22.6H534z"/>
</g>
<g>
	<g>
		<path class="st0" d="M137.6,0.7c-0.3,0.6-0.6,1.3-0.9,1.9c-0.6,1-1.2,2-1.7,3c-1.2,2.3-2.8,4.3-4.7,6c-0.2,0.2-0.5,0.4-0.7,0.6
			c1,0.7,1.9,1.2,2.8,1.9c-0.3,0.6-0.5,1.3-0.8,1.8c-2,4.1-4.9,7.3-9.1,9.3c-1.5,0.7-3,1.1-4.6,1.3c-3.5,0.5-5.9,2.4-7.4,5.5
			c-0.5,1.2-0.8,2.5-1.2,3.8c0,0.2-0.1,0.3-0.1,0.5c-1.2,0-2.3,0-3.6,0c0.2-0.9,0.3-1.8,0.5-2.7c0.2-1.3,0.5-2.6,0.7-3.9
			c0.8-4.8,2.4-9.4,4.6-13.8c1.8-3.4,4.1-6.5,7-9c3.4-2.8,7.2-4.6,11.5-5.6c2.4-0.5,4.8-0.8,7.3-0.8C137.3,0.7,137.4,0.7,137.6,0.7z
			"/>
	</g>
</g>
<g class="st1">
	<path class="st0" d="M701.5,32.5c-1,2-2,4.7-3,8.1c-1,3.4-2.5,8.5-4.4,15.3L691,67.6c-3.8,13.9-6.2,23.8-7.1,29.5
		c-0.2,1.3-0.8,2.4-1.8,3.2c-1,0.9-2.4,1.3-4.4,1.3c-0.5,0-2.1-3.2-4.8-9.5c-2.8-6.4-6.3-14.9-10.8-25.5c-2.7-6.3-5.5-12.2-8.2-17.7
		c-2.8-5.5-4.7-8.6-5.6-9.4c-1.3-1-1.9-2-1.9-3.2c0-0.5,0.5-1.2,1.5-2.1c1-0.9,2.1-1.4,3.1-1.4c0.7,0,1.2,0.1,1.5,0.4
		c0.3,0.3,0.7,0.8,1.2,1.5c1,1.4,2.6,4.5,4.9,9.3c2.3,4.8,4.6,10,6.9,15.7l9.3,22.5c2.9,6.9,4.6,11,5.1,12.2
		c0.2-1.4,0.8-4.8,2.1-10.2c1.2-5.3,2.7-11.4,4.5-18.1c2.6-9.7,4.7-17.4,6.3-23c1.6-5.6,3.1-10.1,4.6-13.4c1.3-2.9,2.4-4.9,3.3-6
		c0.9-1.1,1.9-1.6,3.1-1.6c0.4,0,1,0.6,1.8,1.8c0.8,1.2,1.2,1.9,1.2,2.3c0,0.2-0.6,0.9-1.8,1.9C703.5,29.2,702.4,30.6,701.5,32.5z"
		/>
	<path class="st0" d="M717.1,26.2c-1.3,0-2.6-0.5-3.9-1.6c-1.3-1.1-2-1.9-2-2.6c0-0.8,0.4-1.6,1.2-2.4c0.8-0.8,1.6-1.1,2.4-1.1
		c1.1,0.4,2.1,1,2.8,1.8c0.6,0.6,1.3,1.4,2,2.4c0.8,1,1.1,1.6,1.1,1.8C720.8,25.6,719.6,26.2,717.1,26.2z M720.5,97.8
		c-1.1-0.1-1.8-1.8-2.3-5.1c-0.5-3.3-1-9.6-1.5-18.9c-0.3-6.1-0.6-12.1-0.8-17.9c-0.2-5.8-0.4-10.3-0.5-13.5c0-0.8,0.1-1.4,0.4-1.9
		c0.3-0.4,0.8-0.6,1.5-0.6c1.7,0,2.8,0.7,3.3,2.1c0.5,1.4,0.7,4.2,0.7,8.2l-0.1,13.3c0,7.6,0.2,13.7,0.7,18.3c0,0.2,0.3,2.6,1,7.2
		c0.5,3.2,0.8,5.3,0.8,6.3c0,0.8-0.3,1.3-1,1.8C722.1,97.7,721.3,97.9,720.5,97.8z"/>
	<path class="st0" d="M781.5,68.1c0,1.4-1,4.3-3,8.9c-2,4.6-5,8.9-9,12.8c-4,3.9-9,5.9-14.9,5.9c-4.8,0-8.9-1.5-12.1-4.5
		c-3.2-3-4.9-7.6-4.9-13.9c0-5.9,1.4-11.7,4.1-17.5s6.3-10.5,10.6-14.1c4.4-3.7,8.9-5.5,13.6-5.5c2.8,0,5.1,0.6,7.1,1.9
		s2.9,3,2.9,5.4c0,2.6-1.5,5.2-4.5,7.7c-3,2.5-6.8,4.7-11.6,6.6c-4.7,1.9-9.6,3.2-14.7,4.1c-0.9,3.5-1.4,6.9-1.4,10.2
		c0,4.4,1,7.8,3.1,10.2c2.1,2.4,5,3.6,8.9,3.6c5.8,0,10.5-2.1,14.1-6.2c3.6-4.1,6.6-8.8,9-14c0.2-0.3,0.4-0.9,0.8-1.8
		c0.4-0.9,0.7-1.3,1-1.3C781.2,66.4,781.5,67,781.5,68.1z M764.6,44.8c-2.9,0-5.6,0.9-8.2,2.8c-2.6,1.9-4.8,4.1-6.6,6.8
		c-1.8,2.6-2.9,5-3.4,7c3.5-0.4,7.1-1.4,11-2.9c3.8-1.6,7.1-3.3,9.7-5.2c2.6-1.9,3.9-3.4,3.9-4.6c0-1.2-0.6-2.1-1.9-2.8
		C767.7,45.2,766.2,44.8,764.6,44.8z"/>
	<path class="st0" d="M825.4,99.3c-0.8,0-1.4-0.2-1.9-0.5c-0.5-0.3-0.8-0.8-0.8-1.4c0-3.1,0.2-7.9,0.7-14.4
		c0.5-6.9,0.7-12.7,0.7-17.3c0-4.4-0.1-8.1-0.4-10.9c-0.3-2.8-0.9-4.2-1.9-4.2c-2.6,0-5.4,3.2-8.4,9.5c-3.1,6.4-6.5,14.7-10.5,25.1
		l-1.7,4.5c-0.3,0.8-0.8,1.4-1.5,1.8c-0.7,0.5-1.5,0.7-2.2,0.7c-0.9,0-1.5-0.1-1.8-0.2c-0.3-0.1-0.5-0.6-0.6-1.4l-0.9-9.3l-1.7-16.3
		c-0.5-6.5-1.2-12.1-1.9-17c-0.2-1.1-0.3-2-0.3-2.6c0-1.1,0.5-2.1,1.5-2.8c1-0.7,2.1-1.1,3.4-1.1c0.8,0,1.3,1.8,1.6,5.4
		c0.3,3.6,0.7,9.5,1.1,17.5l0.5,6c0.6,7.6,0.9,12.4,1,14.5c0.2-0.5,0.4-1,0.6-1.5c0.2-0.6,0.4-1.2,0.7-1.9
		c4.1-10.5,7.9-19.3,11.5-26.4c3.6-7,7-10.6,10.3-10.6c2.3,0,3.9,2,4.8,5.9c0.9,4,1.4,9,1.6,15.2c0.2,6.9,0.3,16.9,0.3,30.1
		c0,0.9-0.4,1.7-1.1,2.3C827.3,99,826.4,99.3,825.4,99.3z"/>
	<path class="st0" d="M877.3,99.3c-0.8,0-1.4-0.2-1.9-0.5c-0.5-0.3-0.8-0.8-0.8-1.4c0-3.1,0.2-7.9,0.7-14.4
		c0.5-6.9,0.7-12.7,0.7-17.3c0-4.4-0.1-8.1-0.4-10.9c-0.3-2.8-0.9-4.2-1.9-4.2c-2.6,0-5.4,3.2-8.4,9.5c-3.1,6.4-6.5,14.7-10.5,25.1
		l-1.7,4.5c-0.3,0.8-0.8,1.4-1.5,1.8c-0.7,0.5-1.5,0.7-2.2,0.7c-0.9,0-1.5-0.1-1.8-0.2c-0.3-0.1-0.5-0.6-0.6-1.4l-0.9-9.3l-1.7-16.3
		c-0.5-6.5-1.2-12.1-1.9-17c-0.2-1.1-0.3-2-0.3-2.6c0-1.1,0.5-2.1,1.5-2.8c1-0.7,2.1-1.1,3.4-1.1c0.8,0,1.3,1.8,1.6,5.4
		c0.3,3.6,0.7,9.5,1.1,17.5l0.5,6c0.6,7.6,0.9,12.4,1,14.5c0.2-0.5,0.4-1,0.6-1.5c0.2-0.6,0.4-1.2,0.7-1.9
		c4.1-10.5,7.9-19.3,11.5-26.4c3.6-7,7-10.6,10.3-10.6c2.3,0,3.9,2,4.8,5.9c0.9,4,1.4,9,1.6,15.2c0.2,6.9,0.3,16.9,0.3,30.1
		c0,0.9-0.4,1.7-1.1,2.3C879.3,99,878.4,99.3,877.3,99.3z"/>
	<path class="st0" d="M942.9,91.1c0,0.9-0.4,1.9-1.1,3.1c-0.8,1.2-1.5,1.8-2.3,1.8c-1.3,0-2.3-0.8-2.9-2.4s-1-3.4-1-5.5
		c0-1.8,0.1-7.2,0.3-16.3l0.1-4.3c0-1.7-0.5-3-1.4-3.7c-3.4,5.7-6.6,10.7-9.5,14.9c-2.9,4.2-6.7,8.2-11.2,11.9
		c-4.5,3.7-9.3,5.6-14.2,5.6c-2.4,0-4.3-0.8-5.6-2.3c-1.3-1.5-2-3.5-2-5.9c0-3,1.4-7.1,4.1-12.4c2.7-5.2,6.2-10.5,10.4-15.9
		c4.2-5.4,8.4-9.8,12.7-13.3c2.8-2.3,5-3.8,6.7-4.6c1.7-0.8,3.1-1.2,4.4-1.2c1.2,0,2.4,0.4,3.7,1.1c1.3,0.8,2.4,1.8,3.3,3.2
		s1.4,2.9,1.4,4.6c0,2.3-0.6,4.6-1.9,6.7l1.9-0.6c0.8,0,1.3,1,1.5,3.1c0.1,1.2,0.2,3.7,0.3,7.3c0.1,3.7,0.2,6.7,0.3,9.2
		c0.1,2.5,0.2,4.9,0.2,7.2c0.1,2.3,0.1,4.2,0.2,5.5c0.1,0.5,0.4,1.1,0.9,1.6C942.6,90.2,942.9,90.7,942.9,91.1z M933,59.3
		c0.9-2.3,1.4-4.7,1.4-7.3c0-1.6-0.5-3-1.4-4.1c-0.9-1.2-2.2-1.8-3.8-1.8c-1.9,0-4.3,1.3-7.2,3.8c-3.4,2.9-7,6.7-10.7,11.5
		c-3.8,4.8-6.9,9.5-9.4,14.2c-2.5,4.7-3.7,8.4-3.7,11.1c0,2.3,1.1,3.4,3.2,3.4c4.1,0,8-1.5,11.8-4.5c3.8-3,7.1-6.6,10.1-10.8
		C926.1,70.6,929.4,65.4,933,59.3z"/>
</g>
<circle class="st2" cx="613" cy="66.4" r="5.5"/>
</svg>
